# xmcd
#
# Track frame offsets:
#	150
#	14925
#	30611
#	46409
#	60914
#	74588
#	87037
#	100139
#	110606
#	122663
#	131707
#	144683
#	157879
#	173606
#	187085
#	200658
#	213402
#	225023
#	236615
#	249681
#	259725
#	273761
#
# Disc length: 3819 seconds
#
# Revision: 1
# Processed by: cddbd v1.5.2PL0 Copyright (c) Steve Scherf et al.
# Submitted via: audiograbber 1.83.01
#
DISCID=380ee916
DTITLE=Best of Blues - CD 05
DYEAR=1900
DGENRE=Blues
TTITLE0=Wrong Man Blues - Leroy Carr and Scrapper Blackwell
TTITLE1=Gettin' All Wet - Leroy Carr and Scrapper Blackwell
TTITLE2=Blue With The Blues - Leroy Carr and Scrapper Blackwell
TTITLE3=Christmas In Jail,Ain't That A Pain - Leroy Carr and Scrapper Blackwell
TTITLE4=That'sTellin'em - Leroy Carr and Scrapper Blackwell
TTITLE5=Papa Wants A Cookie - Leroy Carr and Scrapper Blackwell 
TTITLE6=The Dirty Dozen - Leroy Carr and Scrapper Blackwell
TTITLE7=Win-O - Pee Wee Crayton
TTITLE8=I Got News For You - Pee Wee Crayton
TTITLE9=Blues Before Dawn - Pee Wee Crayton
TTITLE10=Don't Break My Heart - Pee Wee Crayton
TTITLE11=The Telephone Is Ringing - Pee Wee Crayton
TTITLE12=California Women - Pee Wee Crayton
TTITLE13=Blues For My Baby - Pee Wee Crayton
TTITLE14=I'm A Man - Bo Diddley
TTITLE15=Bo Diddley - Bo Diddley
TTITLE16=Diddy Wah Diddy - Bo Diddley
TTITLE17=I'm Looking For A Woman - Bo Diddley
TTITLE18=You Don't Love Me - Bo Diddley
TTITLE19=Hey Bo Diddley - Bo Diddley
TTITLE20=Before You Accuse Me - Bo Diddley
TTITLE21=Rood Runner - Bo Diddley
EXTD=
EXTT0=
EXTT1=
EXTT2=
EXTT3=
EXTT4=
EXTT5=
EXTT6=
EXTT7=
EXTT8=
EXTT9=
EXTT10=
EXTT11=
EXTT12=
EXTT13=
EXTT14=
EXTT15=
EXTT16=
EXTT17=
EXTT18=
EXTT19=
EXTT20=
EXTT21=
PLAYORDER=
